HIERARCHY
ROOT root
{
	OFFSET	0	13.1	24.9
	CHANNELS 6  Xposition Yposition Zposition Xrotation Yrotation Zrotation
	JOINT spine_1
	{
		OFFSET	0	9.99999	0
		CHANNELS 3  Xrotation Yrotation Zrotation
		JOINT spine_2
		{
			OFFSET	0	112	-10
			CHANNELS 3  Xrotation Yrotation Zrotation
			JOINT spine_3
			{
				OFFSET	0	206.5	19.3
				CHANNELS 3  Xrotation Yrotation Zrotation
				JOINT spine_4
				{
					OFFSET	0	110.4	14.6
					CHANNELS 3  Xrotation Yrotation Zrotation
					JOINT neck_1
					{
						OFFSET	0	71.8	-50.3
						CHANNELS 3  Xrotation Yrotation Zrotation
						JOINT neck_2
						{
							OFFSET	0	86.2	-25.8
							CHANNELS 3  Xrotation Yrotation Zrotation
							JOINT head_ee
							{
								OFFSET	0	179.8	-8.7
								CHANNELS 3  Xrotation Yrotation Zrotation
								End Site
								{
									OFFSET	1	0	0
								}
							}
						}
					}
					JOINT left_clavicle
					{
						OFFSET	-43.2	22.4	-70.8
						CHANNELS 3  Xrotation Yrotation Zrotation
						JOINT left_shoulder
						{
							OFFSET	-93.9	-5.79999	48.7
							CHANNELS 3  Xrotation Yrotation Zrotation
							JOINT left_elbow
							{
								OFFSET	-291.4	-30.8	15.2
								CHANNELS 3  Xrotation Yrotation Zrotation
								JOINT left_lowarm_twist
								{
									OFFSET	-110.7	-3.89999	13.6
									CHANNELS 3  Xrotation Yrotation Zrotation
									JOINT left_hand
									{
										OFFSET	-110.7	-3.89999	13.6
										CHANNELS 3  Xrotation Yrotation Zrotation
										JOINT left_ee
										{
											OFFSET	-80.8	-5.10001	12.1
											CHANNELS 3  Xrotation Yrotation Zrotation
											End Site
											{
												OFFSET	1	0	0
											}
										}
									}
								}
							}
						}
					}
					JOINT right_clavicle
					{
						OFFSET	43.2	22.4	-70.8
						CHANNELS 3  Xrotation Yrotation Zrotation
						JOINT right_shoulder
						{
							OFFSET	93.9	-5.79999	48.7
							CHANNELS 3  Xrotation Yrotation Zrotation
							JOINT right_elbow
							{
								OFFSET	291.4	-30.8	15.2
								CHANNELS 3  Xrotation Yrotation Zrotation
								JOINT right_lowarm_twist
								{
									OFFSET	110.7	-3.89999	13.6
									CHANNELS 3  Xrotation Yrotation Zrotation
									JOINT right_hand
									{
										OFFSET	110.7	-3.89999	13.6
										CHANNELS 3  Xrotation Yrotation Zrotation
										JOINT right_ee
										{
											OFFSET	80.8	-5.10001	12.1
											CHANNELS 3  Xrotation Yrotation Zrotation
											End Site
											{
												OFFSET	1	0	0
											}
										}
									}
								}
							}
						}
					}
				}
			}
		}
	}
	JOINT left_hip
	{
		OFFSET	-82.8	-127.5	0.300001
		CHANNELS 3  Xrotation Yrotation Zrotation
		JOINT left_knee
		{
			OFFSET	-28.2	-396.7	2.2
			CHANNELS 3  Xrotation Yrotation Zrotation
			JOINT left_ankle
			{
				OFFSET	-11.7	-411.3	35.4
				CHANNELS 3  Xrotation Yrotation Zrotation
				JOINT left_toes
				{
					OFFSET	0	-60	-88.6
					CHANNELS 3  Xrotation Yrotation Zrotation
					JOINT left_foot_ee
					{
						OFFSET	-22.5	-16.5	-42.2
						CHANNELS 3  Xrotation Yrotation Zrotation
						End Site
						{
							OFFSET	1	0	0
						}
					}
				}
			}
		}
	}
	JOINT right_hip
	{
		OFFSET	82.8	-127.5	0.300001
		CHANNELS 3  Xrotation Yrotation Zrotation
		JOINT right_knee
		{
			OFFSET	28.2	-396.7	2.2
			CHANNELS 3  Xrotation Yrotation Zrotation
			JOINT right_ankle
			{
				OFFSET	11.7	-411.3	35.4
				CHANNELS 3  Xrotation Yrotation Zrotation
				JOINT right_toes
				{
					OFFSET	0	-60	-88.6
					CHANNELS 3  Xrotation Yrotation Zrotation
					JOINT right_foot_ee
					{
						OFFSET	22.5	-16.5	-42.2
						CHANNELS 3  Xrotation Yrotation Zrotation
						End Site
						{
							OFFSET	1	0	0
						}
					}
				}
			}
		}
	}
}
MOTION
Frames: 9
Frame Time: 0.02
2480.85740673 761.684 -1450.4646238 146.539343582 67.9688333425 -139.343657849 -3.90614 -0.862205 -4.58862 -3.89461 -0.568794 -4.63405 -3.8296 0.728457 -4.61169 -3.85926 -0.00819108 -4.66874 -2.3035 2.44525 7.37098 -2.14685 -1.40435 8.0626 -0.0 0.0 -0.0 6.93242 -10.1074 13.24 -6.46785 2.38717 75.6738 0.192178 -5.43825 0.00912721 -35.6946 -2.50535 3.73461 -0.107607 16.7431 6.16009 -0.0 0.0 -0.0 -0.0398291 6.22676 0.821091 22.8689 4.61088 -67.6243 2.4005 49.9305 -1.11773 18.5147 -0.276659 2.33863 2.14867 -0.498753 -14.7102 0.0 0.0 0.0 3.13206 -14.4228 -9.79828 -45.0921 -0.822084 6.69592 8.85716 13.5003 -1.26978 -11.4347 0.0 0.0 -0.0 0.0 -0.0 -3.02243 6.03632 -14.8181 -8.98142 -0.264301 -1.35162 16.5126 0.200453 2.3097 -19.6214 0.0 0.0 0.0 0.0 0.0 
2481.36085773 761.684 -1444.3560764 147.969024685 67.048381216 -140.890973581 -3.90614 -0.862205 -4.58862 -3.89461 -0.568794 -4.63405 -3.8296 0.728457 -4.61169 -3.85926 -0.00819108 -4.66874 -2.3035 2.44525 7.37098 -2.14685 -1.40435 8.0626 -0.0 0.0 -0.0 6.93242 -10.1074 13.24 -6.46785 2.38717 75.6738 0.192178 -5.43825 0.00912721 -35.6946 -2.50535 3.73461 -0.107607 16.7431 6.16009 -0.0 0.0 -0.0 -0.0398291 6.22676 0.821091 22.8689 4.61088 -67.6243 2.4005 49.9305 -1.11773 18.5147 -0.276659 2.33863 2.14867 -0.498753 -14.7102 0.0 0.0 0.0 3.13206 -14.4228 -9.79828 -45.0921 -0.822084 6.69592 8.85716 13.5003 -1.26978 -11.4347 0.0 0.0 -0.0 0.0 -0.0 -3.02243 6.03632 -14.8181 -8.98142 -0.264301 -1.35162 16.5126 0.200453 2.3097 -19.6214 0.0 0.0 0.0 0.0 0.0 
2465.35650247 764.346 -1430.27050727 157.093486656 62.4891012461 -150.859734626 -3.71055 -0.774317 -4.44113 -3.69971 -0.490438 -4.48129 -3.64438 0.747469 -4.44572 -3.67194 0.036712 -4.50785 -0.166298 2.39966 7.12771 -0.0180082 -1.5511 7.91759 -0.0 0.0 -0.0 7.09626 -10.4535 13.5727 -6.69397 3.00563 74.611 0.231806 -6.55073 0.0132659 -36.0564 -2.54185 3.76328 -0.0343293 23.8099 9.2937 -0.0 0.0 -0.0 -0.487481 7.90928 1.9392 20.9658 4.22336 -65.5359 3.16899 57.4898 -1.73851 20.8821 -0.257172 2.64036 2.74509 5.90628 -16.2269 0.0 0.0 0.0 4.81023 -13.0182 -9.66026 -32.2626 -0.049225 4.8861 16.393 7.94889 -2.27404 -8.66427 0.0 0.0 -0.0 0.0 -0.0 -3.5558 7.1383 -14.2313 -5.57597 -0.189087 -0.834519 17.9744 -2.23655 2.48617 -19.1932 0.0 0.0 0.0 0.0 0.0 
2458.23443177 762.506 -1420.48524227 159.907210692 61.1625618591 -153.873642301 -3.57794 -0.767696 -4.31647 -3.56771 -0.491739 -4.35647 -3.51458 0.702336 -4.32756 -3.54071 0.0107476 -4.38407 0.817867 2.54212 7.29699 0.973327 -1.5555 8.1755 -0.0 0.0 -0.0 6.77148 -10.5653 12.8793 -6.61058 4.12677 74.8985 0.228587 -6.46054 0.0129012 -36.0204 -2.53822 3.76044 0.124497 26.3354 11.1117 -0.0 0.0 -0.0 -0.729295 8.7326 2.54054 20.4651 5.00519 -65.1884 3.44429 59.6112 -1.97341 22.0173 -0.243409 2.78471 2.86472 8.77323 -15.8096 0.0 0.0 0.0 4.99076 -13.5955 -8.84246 -26.3604 0.166177 4.00631 17.2669 10.9169 -2.39094 -8.69664 0.0 0.0 -0.0 0.0 -0.0 -3.74391 6.4809 -14.138 -4.16129 -0.148826 -0.621151 18.5836 -2.52935 2.56224 -19.151 0.0 0.0 0.0 0.0 0.0 
2353.9243805 757.182 -1523.01217326 169.989754456 84.589395211 -160.153750539 -1.4074 -0.805542 -4.90498 -1.39416 -0.492184 -4.94616 -1.33945 0.674717 -4.92463 -1.37326 -0.110509 -4.9693 2.60074 -3.72964 8.47891 3.09022 -13.7017 9.20462 -0.0 0.0 -0.0 6.63454 -8.6907 12.6706 -0.471099 1.09375 76.638 0.946479 -25.1195 0.21087 -35.5253 -2.48834 3.72112 0.541119 24.8743 13.0093 -0.0 0.0 -0.0 -1.34946 1.26055 2.78684 2.9035 1.39973 -70.1031 2.16309 46.9717 -0.939996 18.8496 -0.274659 2.38137 3.12409 13.076 -15.6462 0.0 0.0 0.0 0.832749 -3.76234 -11.3704 -2.5185 0.0954725 0.374684 21.9012 9.92274 -2.96756 -7.2144 0.0 0.0 -0.0 0.0 -0.0 -2.64887 8.59907 -15.09 1.21796 0.0520668 0.179644 19.8276 -13.2628 2.7248 -18.6133 0.0 0.0 0.0 0.0 0.0 
2353.61156087 757.182 -1520.08439563 170.634118518 84.2196068909 -160.801196219 -1.4074 -0.805542 -4.90498 -1.39416 -0.492184 -4.94616 -1.33945 0.674717 -4.92463 -1.37326 -0.110509 -4.9693 2.60074 -3.72964 8.47891 3.09022 -13.7017 9.20462 -0.0 0.0 -0.0 6.63454 -8.6907 12.6706 -0.471099 1.09375 76.638 0.946479 -25.1195 0.21087 -35.5253 -2.48834 3.72112 0.541119 24.8743 13.0093 -0.0 0.0 -0.0 -1.34946 1.26055 2.78684 2.9035 1.39973 -70.1031 2.16309 46.9717 -0.939996 18.8496 -0.274659 2.38137 3.12409 13.076 -15.6462 0.0 0.0 0.0 0.832749 -3.76234 -11.3704 -2.5185 0.0954725 0.374684 21.9012 9.92274 -2.96756 -7.2144 0.0 0.0 -0.0 0.0 -0.0 -2.64887 8.59907 -15.09 1.21796 0.0520668 0.179644 19.8276 -13.2628 2.7248 -18.6133 0.0 0.0 0.0 0.0 0.0 
2353.20678437 757.182 -1515.99230838 171.407030341 83.7021238919 -161.578413377 -1.4074 -0.805542 -4.90498 -1.39416 -0.492184 -4.94616 -1.33945 0.674717 -4.92463 -1.37326 -0.110509 -4.9693 2.60074 -3.72964 8.47891 3.09022 -13.7017 9.20462 -0.0 0.0 -0.0 6.63454 -8.6907 12.6706 -0.471099 1.09375 76.638 0.946479 -25.1195 0.21087 -35.5253 -2.48834 3.72112 0.541119 24.8743 13.0093 -0.0 0.0 -0.0 -1.34946 1.26055 2.78684 2.9035 1.39973 -70.1031 2.16309 46.9717 -0.939996 18.8496 -0.274659 2.38137 3.12409 13.076 -15.6462 0.0 0.0 0.0 0.832749 -3.76234 -11.3704 -2.5185 0.0954725 0.374684 21.9012 9.92274 -2.96756 -7.2144 0.0 0.0 -0.0 0.0 -0.0 -2.64887 8.59907 -15.09 1.21796 0.0520668 0.179644 19.8276 -13.2628 2.7248 -18.6133 0.0 0.0 0.0 0.0 0.0 
2352.55754901 757.182 -1508.42448513 172.543861575 82.743832992 -162.72320308 -1.4074 -0.805542 -4.90498 -1.39416 -0.492184 -4.94616 -1.33945 0.674717 -4.92463 -1.37326 -0.110509 -4.9693 2.60074 -3.72964 8.47891 3.09022 -13.7017 9.20462 -0.0 0.0 -0.0 6.63454 -8.6907 12.6706 -0.471099 1.09375 76.638 0.946479 -25.1195 0.21087 -35.5253 -2.48834 3.72112 0.541119 24.8743 13.0093 -0.0 0.0 -0.0 -1.34946 1.26055 2.78684 2.9035 1.39973 -70.1031 2.16309 46.9717 -0.939996 18.8496 -0.274659 2.38137 3.12409 13.076 -15.6462 0.0 0.0 0.0 0.832749 -3.76234 -11.3704 -2.5185 0.0954725 0.374684 21.9012 9.92274 -2.96756 -7.2144 0.0 0.0 -0.0 0.0 -0.0 -2.64887 8.59907 -15.09 1.21796 0.0520668 0.179644 19.8276 -13.2628 2.7248 -18.6133 0.0 0.0 0.0 0.0 0.0 
2352.29030022 757.182 -1504.77326733 172.990660161 82.2811177942 -163.173840453 -1.4074 -0.805542 -4.90498 -1.39416 -0.492184 -4.94616 -1.33945 0.674717 -4.92463 -1.37326 -0.110509 -4.9693 2.60074 -3.72964 8.47891 3.09022 -13.7017 9.20462 -0.0 0.0 -0.0 6.63454 -8.6907 12.6706 -0.471099 1.09375 76.638 0.946479 -25.1195 0.21087 -35.5253 -2.48834 3.72112 0.541119 24.8743 13.0093 -0.0 0.0 -0.0 -1.34946 1.26055 2.78684 2.9035 1.39973 -70.1031 2.16309 46.9717 -0.939996 18.8496 -0.274659 2.38137 3.12409 13.076 -15.6462 0.0 0.0 0.0 0.832749 -3.76234 -11.3704 -2.5185 0.0954725 0.374684 21.9012 9.92274 -2.96756 -7.2144 0.0 0.0 -0.0 0.0 -0.0 -2.64887 8.59907 -15.09 1.21796 0.0520668 0.179644 19.8276 -13.2628 2.7248 -18.6133 0.0 0.0 0.0 0.0 0.0 
